<svg width="24" height="24" viewBox="0 0 24 24" fill="none" xmlns="http://www.w3.org/2000/svg">
<path fill-rule="evenodd" clip-rule="evenodd" d="M20.7071 7.29289C21.0976 7.68342 21.0976 8.31658 20.7071 8.70711L17.4142 12L20.7071 15.2929C21.0976 15.6834 21.0976 16.3166 20.7071 16.7071C20.3166 17.0976 19.6834 17.0976 19.2929 16.7071L15.2929 12.7071C14.9024 12.3166 14.9024 11.6834 15.2929 11.2929L19.2929 7.29289C19.6834 6.90237 20.3166 6.90237 20.7071 7.29289Z" fill="#4E739D"/>
<path fill-rule="evenodd" clip-rule="evenodd" d="M3 7C3 6.44772 3.44772 6 4 6L16 6C16.5523 6 17 6.44772 17 7C17 7.55229 16.5523 8 16 8L4 8C3.44772 8 3 7.55228 3 7Z" fill="#4E739D"/>
<path fill-rule="evenodd" clip-rule="evenodd" d="M3 17C3 16.4477 3.44772 16 4 16L16 16C16.5523 16 17 16.4477 17 17C17 17.5523 16.5523 18 16 18L4 18C3.44772 18 3 17.5523 3 17Z" fill="#4E739D"/>
<path fill-rule="evenodd" clip-rule="evenodd" d="M3 12C3 11.4477 3.44772 11 4 11L12 11C12.5523 11 13 11.4477 13 12C13 12.5523 12.5523 13 12 13L4 13C3.44772 13 3 12.5523 3 12Z" fill="#4E739D"/>
</svg>
