<svg width="100" height="100" viewBox="0 0 100 100" fill="none" xmlns="http://www.w3.org/2000/svg">
<circle cx="50" cy="50" r="50" fill="#9FBDDD"/>
<path d="M49.5 34.0988C45.3424 30.3062 39.8521 28 33.8333 28C31.0867 28 28.4501 28.4803 26 29.3629V67.2861C28.4501 66.4035 31.0867 65.9233 33.8333 65.9233C39.8521 65.9233 45.3424 68.2294 49.5 72.0221M49.5 34.0988C53.6576 30.3062 59.1479 28 65.1667 28C67.9133 28 70.5499 28.4803 73 29.3629V67.2861C70.5499 66.4035 67.9133 65.9233 65.1667 65.9233C59.1479 65.9233 53.6576 68.2294 49.5 72.0221M49.5 34.0988V72.0221" stroke="white" stroke-width="4" stroke-linecap="round" stroke-linejoin="round"/>
</svg>
