<svg width="14" height="18" viewBox="0 0 14 18" fill="none" xmlns="http://www.w3.org/2000/svg">
<path d="M4.49984 13.1667H9.49984M4.49984 10.6667H9.49984M7.83348 1.50073C7.75387 1.5 7.66432 1.5 7.5621 1.5H3.83333C2.89991 1.5 2.43285 1.5 2.07633 1.68166C1.76273 1.84145 1.50795 2.09623 1.34816 2.40983C1.1665 2.76635 1.1665 3.23341 1.1665 4.16683V13.8335C1.1665 14.7669 1.1665 15.2334 1.34816 15.5899C1.50795 15.9035 1.76273 16.1587 2.07633 16.3185C2.43251 16.5 2.89901 16.5 3.83062 16.5L10.1691 16.5C11.1007 16.5 11.5665 16.5 11.9227 16.3185C12.2363 16.1587 12.4919 15.9035 12.6517 15.5899C12.8332 15.2337 12.8332 14.7679 12.8332 13.8363V6.7714C12.8332 6.66918 12.8331 6.57961 12.8324 6.5M7.83348 1.50073C8.07136 1.5029 8.22127 1.51172 8.36499 1.54623C8.53505 1.58705 8.69805 1.65439 8.84717 1.74577C9.01531 1.84881 9.15968 1.99318 9.44775 2.28125L12.0523 4.88582C12.3406 5.17407 12.4839 5.3178 12.587 5.486C12.6783 5.63512 12.746 5.79771 12.7868 5.96777C12.8213 6.11149 12.8302 6.26212 12.8324 6.5M7.83348 1.50073L7.83317 3.83351C7.83317 4.76693 7.83317 5.23346 8.01483 5.58998C8.17462 5.90358 8.4294 6.15873 8.743 6.31852C9.09917 6.5 9.56568 6.5 10.4973 6.5H12.8324" stroke="black" stroke-width="1.5" stroke-linecap="round" stroke-linejoin="round"/>
</svg>
