<svg width="18" height="17" viewBox="0 0 18 17" fill="none" xmlns="http://www.w3.org/2000/svg">
<path d="M9 5.7998V15.9998M9 5.7998C9 4.11965 9 3.27992 9.27248 2.63818C9.51217 2.0737 9.89434 1.6146 10.3647 1.32698C10.8995 1 11.5997 1 12.9998 1H15.1665C15.6332 1 15.8667 1 16.045 1.10899C16.2018 1.20487 16.329 1.35774 16.4089 1.5459C16.4997 1.75981 16.5 2.04004 16.5 2.6001V11.4001C16.5 11.9601 16.4997 12.2398 16.4089 12.4537C16.329 12.6419 16.2021 12.7952 16.0453 12.8911C15.8672 13 15.6342 13 15.1684 13H12.8078C12.0251 13 11.6331 13 11.2778 13.1295C10.9634 13.2441 10.6714 13.4317 10.4175 13.6821C10.1307 13.965 9.91335 14.3557 9.4792 15.1372L9 15.9998M9 5.7998C9 4.11965 8.99986 3.27992 8.72738 2.63818C8.48769 2.0737 8.10522 1.6146 7.63481 1.32698C7.10003 1 6.39981 1 4.99967 1H2.83301C2.3663 1 2.13318 1 1.95492 1.10899C1.79811 1.20487 1.67072 1.35774 1.59083 1.5459C1.5 1.75981 1.5 2.04004 1.5 2.6001V11.4001C1.5 11.9601 1.5 12.2398 1.59083 12.4537C1.67072 12.6419 1.79811 12.7952 1.95492 12.8911C2.133 13 2.36584 13 2.83164 13H5.19227C5.97495 13 6.36618 13 6.7214 13.1295C7.03588 13.2441 7.32927 13.4317 7.58317 13.6821C7.86881 13.9638 8.08477 14.3526 8.5154 15.1277L9 15.9998" stroke="black" stroke-width="1.5" stroke-linecap="round" stroke-linejoin="round"/>
</svg>
