<svg width="20" height="20" viewBox="0 0 20 20" fill="none" xmlns="http://www.w3.org/2000/svg">
<path d="M2.5 9.16667V16.1667C2.5 16.6334 2.5 16.8663 2.59083 17.0446C2.67072 17.2014 2.79811 17.3294 2.95492 17.4093C3.133 17.5 3.36584 17.5 3.83164 17.5L12.8345 17.5C13.3003 17.5 13.534 17.5 13.7121 17.4093C13.8689 17.3294 13.9956 17.2017 14.0755 17.0449C14.1663 16.8667 14.1663 16.6333 14.1663 16.1666L14.1676 12.5005M2.5 9.16667H8.33334M2.5 9.16667L2.5 8.83342C2.5 8.36679 2.5 8.13316 2.59082 7.95492C2.67072 7.79811 2.79811 7.67071 2.95492 7.59082C3.13314 7.50001 3.36646 7.50001 3.83301 7.50001L5.83333 7.5M8.33334 9.16667H12.8333C13.3 9.16667 13.535 9.16667 13.7133 9.25749C13.8701 9.33739 13.9956 9.46478 14.0755 9.62158C14.1663 9.79984 14.1663 10.0332 14.1663 10.4999L14.1676 12.5005M8.33334 9.16667L7.43734 8.01473C7.29051 7.82595 7.21681 7.73119 7.12484 7.66317C7.04334 7.60289 6.95253 7.55816 6.85491 7.53084C6.74478 7.50001 6.624 7.50001 6.38493 7.50001L5.83333 7.5M5.83333 4.16667H16.1667C16.6334 4.16667 16.8684 4.16667 17.0466 4.25749C17.2034 4.33739 17.329 4.46478 17.4089 4.62158C17.4997 4.79984 17.4997 5.0332 17.4997 5.49991V11.1666C17.4997 11.6333 17.4997 11.8667 17.4089 12.0449C17.329 12.2017 17.2027 12.3294 17.0459 12.4093C16.8678 12.5 16.6344 12.5 16.1686 12.5L14.1676 12.5005M5.83333 4.16667V7.5M5.83333 4.16667L5.83334 3.83341C5.83334 3.36679 5.83334 3.13316 5.92416 2.95492C6.00405 2.79811 6.13145 2.67072 6.28825 2.59083C6.46651 2.5 6.69963 2.5 7.16634 2.5H9.71793C9.95725 2.5 10.0761 2.5 10.1863 2.53084C10.2839 2.55817 10.3767 2.60289 10.4582 2.66317C10.5501 2.73119 10.6238 2.82596 10.7707 3.01473L11.6666 4.16665" stroke="black" stroke-width="1.5" stroke-linecap="round" stroke-linejoin="round"/>
</svg>
