<svg width="19" height="19" viewBox="0 0 19 19" fill="none" xmlns="http://www.w3.org/2000/svg">
<path d="M7.59356 12.9033L6.88462 15.3846L6.17567 12.9033C5.80331 11.6 4.78457 10.5813 3.48129 10.2089L1 9.5L3.48129 8.79106C4.78457 8.41869 5.80331 7.39995 6.17567 6.09668L6.88462 3.61538L7.59356 6.09668C7.96592 7.39996 8.98466 8.41869 10.2879 8.79106L12.7692 9.5L10.2879 10.2089C8.98466 10.5813 7.96592 11.6 7.59356 12.9033Z" stroke="#0F172A" stroke-width="1.5" stroke-linecap="round" stroke-linejoin="round"/>
<path d="M14.9564 6.63575L14.7308 7.53846L14.5051 6.63575C14.2415 5.58157 13.4184 4.75845 12.3642 4.49491L11.4615 4.26923L12.3642 4.04355C13.4184 3.78001 14.2415 2.9569 14.5051 1.90271L14.7308 1L14.9564 1.90271C15.22 2.9569 16.0431 3.78001 17.0973 4.04355L18 4.26923L17.0973 4.49491C16.0431 4.75845 15.22 5.58157 14.9564 6.63575Z" stroke="#0F172A" stroke-width="1.5" stroke-linecap="round" stroke-linejoin="round"/>
<path d="M13.7668 16.9689L13.4231 18L13.0794 16.9689C12.8841 16.3832 12.4245 15.9236 11.8388 15.7283L10.8077 15.3846L11.8388 15.0409C12.4245 14.8457 12.8841 14.3861 13.0794 13.8003L13.4231 12.7692L13.7668 13.8003C13.962 14.3861 14.4216 14.8457 15.0074 15.0409L16.0385 15.3846L15.0074 15.7283C14.4216 15.9236 13.962 16.3832 13.7668 16.9689Z" stroke="#0F172A" stroke-width="1.5" stroke-linecap="round" stroke-linejoin="round"/>
</svg>
