<svg width="18" height="16" viewBox="0 0 18 16" fill="none" xmlns="http://www.w3.org/2000/svg">
<path d="M1.5 3.00004V12C1.5 12.9335 1.5 13.3998 1.68166 13.7564C1.84144 14.07 2.09623 14.3254 2.40983 14.4852C2.766 14.6667 3.23249 14.6667 4.16409 14.6667H13.8359C14.7675 14.6667 15.2333 14.6667 15.5895 14.4852C15.9031 14.3254 16.1587 14.0701 16.3185 13.7565C16.5002 13.4 16.5002 12.9333 16.5002 11.9999L16.5002 5.66652C16.5002 4.7331 16.5002 4.26639 16.3185 3.90987C16.1587 3.59627 15.9033 3.34149 15.5897 3.1817C15.2331 3.00004 14.7668 3.00004 13.8333 3.00004H9M1.5 3.00004H9M1.5 3.00004C1.5 2.07957 2.24619 1.33337 3.16667 1.33337H6.22876C6.63642 1.33337 6.84072 1.33337 7.03253 1.37942C7.20259 1.42025 7.36488 1.48776 7.514 1.57914C7.68214 1.68218 7.82651 1.82655 8.11458 2.11462L9 3.00004M11.4995 11.3337L10.1182 9.95235M8.58333 10.5C7.43274 10.5 6.5 9.5673 6.5 8.41671C6.5 7.26611 7.43274 6.33337 8.58333 6.33337C9.73393 6.33337 10.6667 7.26611 10.6667 8.41671C10.6667 9.5673 9.73393 10.5 8.58333 10.5Z" stroke="black" stroke-width="1.5" stroke-linecap="round" stroke-linejoin="round"/>
</svg>
