<svg width="100" height="100" viewBox="0 0 100 100" fill="none" xmlns="http://www.w3.org/2000/svg">
<circle cx="50" cy="50" r="50" fill="#9FBDDD"/>
<path d="M41 61.5L51 71.5M51 71.5L61 61.5M51 71.5V49M73.2 64.225C75.3734 62.6966 77.0034 60.5153 77.8532 57.9978C78.703 55.4803 78.7285 52.7575 77.9259 50.2245C77.1234 47.6915 75.5346 45.4802 73.3901 43.9114C71.2456 42.3425 68.657 41.4979 66 41.5H62.85C62.098 38.5696 60.6912 35.8481 58.7353 33.5402C56.7793 31.2322 54.3253 29.3981 51.558 28.1758C48.7906 26.9536 45.7821 26.375 42.7588 26.4837C39.7355 26.5925 36.7762 27.3856 34.1038 28.8035C31.4314 30.2214 29.1155 32.2271 27.3304 34.6695C25.5453 37.112 24.3376 39.9276 23.7981 42.9043C23.2586 45.8811 23.4015 48.9414 24.2159 51.855C25.0303 54.7686 26.4951 57.4594 28.5 59.725" stroke="#F3F3F3" stroke-width="4" stroke-linecap="round" stroke-linejoin="round"/>
</svg>
