<svg width="100" height="100" viewBox="0 0 100 100" fill="none" xmlns="http://www.w3.org/2000/svg">
<circle cx="50" cy="50" r="50" fill="#9FBDDD"/>
<path d="M38.5417 27V32.75M62.4583 27V32.75M30 67.25V38.5C30 35.3244 32.2945 32.75 35.125 32.75H65.875C68.7055 32.75 71 35.3244 71 38.5V67.25M30 67.25C30 70.4256 32.2945 73 35.125 73H65.875C68.7055 73 71 70.4256 71 67.25M30 67.25V48.0833C30 44.9077 32.2945 42.3333 35.125 42.3333H65.875C68.7055 42.3333 71 44.9077 71 48.0833V67.25M50.5 51.9167H50.5171V51.9358H50.5V51.9167ZM50.5 57.6667H50.5171V57.6858H50.5V57.6667ZM50.5 63.4167H50.5171V63.4358H50.5V63.4167ZM45.375 57.6667H45.3921V57.6858H45.375V57.6667ZM45.375 63.4167H45.3921V63.4358H45.375V63.4167ZM40.25 57.6667H40.2671V57.6858H40.25V57.6667ZM40.25 63.4167H40.2671V63.4358H40.25V63.4167ZM55.625 51.9167H55.6421V51.9358H55.625V51.9167ZM55.625 57.6667H55.6421V57.6858H55.625V57.6667ZM55.625 63.4167H55.6421V63.4358H55.625V63.4167ZM60.75 51.9167H60.7671V51.9358H60.75V51.9167ZM60.75 57.6667H60.7671V57.6858H60.75V57.6667Z" stroke="white" stroke-width="4" stroke-linecap="round" stroke-linejoin="round"/>
</svg>
