<svg width="20" height="14" viewBox="0 0 20 14" fill="none" xmlns="http://www.w3.org/2000/svg">
<path d="M14.1538 1.66667V2.33333M14.1538 5V5.66667M14.1538 8.33333V9M14.1538 11.6667V12.3333M5.84615 7.66667H10.6923M5.84615 9.66667H8.61539M2.03846 1C1.46494 1 1 1.44772 1 2V4.69009C1.82772 5.15117 2.38462 6.01296 2.38462 7C2.38462 7.98704 1.82772 8.84884 1 9.30991V12C1 12.5523 1.46493 13 2.03846 13H17.9615C18.5351 13 19 12.5523 19 12V9.30991C18.1723 8.84884 17.6154 7.98704 17.6154 7C17.6154 6.01296 18.1723 5.15117 19 4.69009V2C19 1.44772 18.5351 1 17.9615 1H2.03846Z" stroke="#0F172A" stroke-width="1.5" stroke-linecap="round" stroke-linejoin="round"/>
</svg>
