<svg width="15" height="16" viewBox="0 0 15 16" fill="none" xmlns="http://www.w3.org/2000/svg">
<path d="M10.149 2.90045C12.4185 3.88696 14 6.10211 14 8.67661C14 12.1689 11.0899 15 7.5 15C3.91015 15 1 12.1689 1 8.67661C1 6.98114 1.68591 5.44152 2.80252 4.30604C3.40642 5.12648 4.20705 5.80055 5.13732 6.26298C5.17286 4.13551 6.1984 2.24218 7.7853 1C8.38678 1.78468 9.18439 2.44409 10.149 2.90045Z" stroke="#0F172A" stroke-width="1.5" stroke-linecap="round" stroke-linejoin="round"/>
<path d="M7.5 12.7009C9.13175 12.7009 10.4545 11.414 10.4545 9.82662C10.4545 8.36779 9.33737 7.1628 7.88991 6.97716C7.09548 7.67046 6.54367 8.6216 6.37357 9.69526C5.75697 9.54863 5.18781 9.28433 4.69265 8.92822C4.59713 9.21087 4.54545 9.51287 4.54545 9.82662C4.54545 11.414 5.86825 12.7009 7.5 12.7009Z" stroke="#0F172A" stroke-width="1.5" stroke-linecap="round" stroke-linejoin="round"/>
</svg>
